<svg xmlns="http://www.w3.org/2000/svg" viewBox="0 0 256 228"><path fill="#00D8FF" d="M210.5 73.8a171.5 171.5 0 0 0-8.3-2.6c.5-1.9 1-3.7 1.3-5.6 6.3-30.3 2.2-54.7-11.8-62.7-13.3-7.7-35.1.3-57.2 19.5a171.2 171.2 0 0 0-6.4 5.9 155.9 155.9 0 0 0-4.2-4C100.8 3.9 77.6-4.7 63.7 3.4 50.3 11 46.4 33.8 52 62.5a171 171 0 0 0 1.9 8.5c-3.3.9-6.5 1.9-9.5 3C17.4 83.4 0 98.2 0 113.6c0 15.8 18.6 31.7 46.8 41.4a145.5 145.5 0 0 0 7 2.2 167.5 167.5 0 0 0-2 9.1c-5.4 28.2-1.2 50.6 12 58.3 13.8 7.9 36.9-.3 59.3-19.9a145.6 145.6 0 0 0 5.4-5 168 168 0 0 0 6.9 6.4c21.7 18.7 43.2 26.3 56.5 18.6 13.8-8 18.2-32 12.4-61.3a145 145 0 0 0-1.5-6.8l4.8-1.5c29.3-9.7 48.4-25.5 48.4-41.5 0-15.4-17.9-30.4-45.5-39.9Zm-6.4 71-4.3 1.4a256.6 256.6 0 0 0-13-32.5c5.2-11 9.4-21.7 12.5-32 2.6.8 5.2 1.6 7.6 2.5 23.7 8.1 38.2 20.2 38.2 29.5 0 9.9-15.6 22.7-41 31.1Zm-10.5 20.8c2.6 13 3 24.7 1.2 33.8-1.5 8.2-4.6 13.7-8.3 16-8.1 4.6-25.4-1.5-44-17.5a156.7 156.7 0 0 1-6.4-5.9c7.2-7.8 14.4-17 21.4-27.2 12.4-1.1 24.1-2.9 34.7-5.4a134.2 134.2 0 0 1 1.4 6.2Zm-106.3 49c-8 2.7-14.2 2.8-18 .6-8-4.7-11.4-22.6-6.8-46.8a157 157 0 0 1 1.8-8.5c10.5 2.4 22.1 4 34.5 5 7.1 10 14.5 19.2 22 27.2a134.7 134.7 0 0 1-4.9 4.5 92.6 92.6 0 0 1-28.6 18Zm-37-69.9A92.6 92.6 0 0 1 20.6 129c-6.4-5.5-9.6-10.9-9.6-15.2 0-9.4 14-21.2 37.1-29.3 2.8-1 5.8-2 8.8-2.8 3.2 10.4 7.4 21.3 12.5 32.3a266.4 266.4 0 0 0-12.6 32.8 134.7 134.7 0 0 1-6.3-2Zm12.4-84.2c-4.8-24.6-1.6-43.1 6.5-47.8 8.5-5 27.5 2.1 47.4 19.8a144.3 144.3 0 0 1 3.9 3.6c-7.5 8-14.8 17-21.9 27-12 1-23.5 2.9-34.1 5.3a160.3 160.3 0 0 1-1.8-8Zm110.5 27.3a347.8 347.8 0 0 0-7.8-12.8c8.1 1 16 2.4 23.3 4-2.2 7.1-5 14.5-8.2 22a381.2 381.2 0 0 0-7.3-13.2Zm-45-44a234 234 0 0 1 15 18.3 322 322 0 0 0-30.3 0c5-6.6 10.1-12.7 15.2-18.2Zm-45.4 44a323.2 323.2 0 0 0-7.2 13.3c-3.2-7.6-6-15-8.2-22.2a254 254 0 0 1 23.2-4 321.5 321.5 0 0 0-7.8 13Zm8 65.4c-8.3-1-16.2-2.2-23.5-3.8 2.3-7.3 5-14.9 8.3-22.6a321.2 321.2 0 0 0 7.2 13.2c2.6 4.5 5.3 8.9 8 13.2Zm37.6 31a245.2 245.2 0 0 1-15.4-18.4 382.9 382.9 0 0 0 30.5 0c-5 6.7-10 12.9-15 18.4Zm52.2-57.8a232 232 0 0 1 8.6 22.5 232 232 0 0 1-23.9 4 382.4 382.4 0 0 0 7.9-13 347.4 347.4 0 0 0 7.4-13.5Zm-16.9 8.1a358.6 358.6 0 0 1-12.3 19.8 329.4 329.4 0 0 1-23.4.8c-8 0-15.7-.2-23.2-.7a310.2 310.2 0 0 1-12.5-19.8 307.4 307.4 0 0 1-11-20.7 310.3 310.3 0 0 1 11-20.6 307.3 307.3 0 0 1 12.4-19.8 307.9 307.9 0 0 1 46.7 0 329.4 329.4 0 0 1 12.3 19.7 358.5 358.5 0 0 1 11 20.6 329.5 329.5 0 0 1-11 20.7Zm22.6-122.1c8.6 5 11.9 24.9 6.5 51l-1.1 5a261.8 261.8 0 0 0-34.3-5.3c-7-10-14.3-19.1-21.6-27a160.8 160.8 0 0 1 5.9-5.4c18.9-16.5 36.5-23 44.6-18.3ZM128 90.8a22.9 22.9 0 1 1 0 45.7 22.9 22.9 0 0 1 0-45.7Z"/></svg>